<svg width="192" height="48" viewBox="0 0 192 48" fill="none" xmlns="http://www.w3.org/2000/svg">
<path d="M86.7743 9.6H105.255V12.8099H92.9439V19.2297H105.255V22.4099H111.424V3.20991H86.7743V9.6ZM185.517 3.20991H176.262V0H170.121V3.20991H154.497V9.6H185.517V3.20991ZM160.895 35.2495H179.147V28.8297H160.895V35.2495ZM132.961 22.4099H123.735V19.2297H132.961V12.8099H123.735V9.6H132.961V3.20991H117.565V28.8297H132.961V22.4099ZM62.153 32.0396H56.0119V44.8495H80.6332V38.4297H62.153V32.0396ZM92.9439 35.2495H86.7743V48H111.424V41.6396H92.9439V35.2495ZM136.046 32.0396H129.876V44.8495H154.497V38.4297H136.046V32.0396ZM0.599609 28.8297H12.9103V22.4099H6.74066V9.6H12.9103V19.2297H19.0513V3.20991H0.599609V28.8297ZM25.221 12.8099H22.1361V19.2297H25.221V28.8297H31.4477V3.20991H25.221V12.8099ZM102.17 22.4099H96.0287V25.6198H86.7743V32.0396H111.424V25.6198H102.17V22.4099ZM139.13 28.8297H145.271V3.20991H139.13V12.8099H136.046V19.2297H139.13V28.8297ZM148.356 28.8297H154.497V12.8099H148.356V28.8297ZM34.4468 28.8297H40.6164V3.20991H34.4468V28.8297ZM177.548 14.1474L173.206 9.6L160.895 22.4099L165.237 26.9573L173.206 18.665L187.088 33.1393L191.401 28.592L177.548 14.1474ZM74.4636 31.9802H80.6332V12.8099H74.4636V31.9802ZM71.436 16.0198C71.4416 13.4791 70.7227 10.9938 69.3703 8.87842C68.0179 6.76305 66.0928 5.11273 63.8386 4.13637C61.5844 3.16001 59.1025 2.9015 56.707 3.39356C54.3116 3.88562 52.1102 5.10613 50.3817 6.90059C48.6532 8.69506 47.4751 10.9828 46.9967 13.4743C46.5183 15.9657 46.761 18.5489 47.694 20.8967C48.6271 23.2446 50.2087 25.2516 52.2384 26.6638C54.2682 28.0759 56.655 28.8297 59.0967 28.8297C60.7158 28.8336 62.3197 28.5052 63.8166 27.8632C65.3135 27.2212 66.674 26.2782 67.8201 25.0883C68.9663 23.8984 69.8757 22.4849 70.4961 20.9288C71.1166 19.3727 71.436 17.7045 71.436 16.0198ZM52.9557 16.0198C52.95 14.7476 53.3078 13.5023 53.9835 12.442C54.6593 11.3817 55.6225 10.5543 56.751 10.0647C57.8796 9.57514 59.1224 9.4455 60.3219 9.69226C61.5213 9.93902 62.6232 10.5511 63.4878 11.4507C64.3523 12.3503 64.9405 13.4969 65.1777 14.745C65.4148 15.9931 65.2902 17.2863 64.8197 18.4606C64.3492 19.6349 63.554 20.6372 62.5351 21.3404C61.5161 22.0435 60.3194 22.4158 59.0967 22.4099C57.4654 22.4099 55.9004 21.7376 54.7442 20.5401C53.588 19.3426 52.9347 17.7173 52.9271 16.0198H52.9557Z" fill="white"/>
</svg>
